<?xml version="1.0" encoding="UTF-8" standalone="no" ?>
<!DOCTYPE svg PUBLIC "-//W3C//DTD SVG 1.1//EN" "http://www.w3.org/Graphics/SVG/1.1/DTD/svg11.dtd">
<svg xmlns="http://www.w3.org/2000/svg" xmlns:xlink="http://www.w3.org/1999/xlink" version="1.1" width="1080" height="1080" viewBox="0 0 1080 1080" xml:space="preserve">
<desc>Created with Fabric.js 5.2.4</desc>
<defs>
</defs>
<rect x="0" y="0" width="100%" height="100%" fill="transparent"></rect>
<g transform="matrix(1 0 0 1 540 540)" id="bea95fb0-5f48-4545-aa61-aa57c5d78966"  >
<rect style="stroke: none; stroke-width: 1; stroke-dasharray: none; stroke-linecap: butt; stroke-dashoffset: 0; stroke-linejoin: miter; stroke-miterlimit: 4; fill: rgb(255,255,255); fill-rule: nonzero; opacity: 1; visibility: hidden;" vector-effect="non-scaling-stroke"  x="-540" y="-540" rx="0" ry="0" width="1080" height="1080" />
</g>
<g transform="matrix(1 0 0 1 540 540)" id="fe5eaca0-8f57-437e-9593-c1e8cf53202b"  >
</g>
<g transform="matrix(1 0 0 1 540 540)" id="path0"  >
<path style="stroke: rgb(0,0,0); stroke-width: 0; stroke-dasharray: none; stroke-linecap: butt; stroke-dashoffset: 0; stroke-linejoin: miter; stroke-miterlimit: 4; fill: rgb(255,255,255); fill-rule: nonzero; opacity: 1;" vector-effect="non-scaling-stroke"  transform=" translate(-202.07, -202.37)" d="M 182.031 11.806 C 179.668 12.182 174.219 13.042 169.922 13.719 C 159.481 15.361 144.571 19.226 135.547 22.63 C 121.796 27.815 103.824 36.36 98.868 40.067 C 98.416 40.405 95.527 42.339 92.447 44.364 C 76.527 54.834 51.099 78.868 43.091 91.016 C 41.957 92.734 40.809 94.316 40.539 94.531 C 40.269 94.746 38.877 96.855 37.446 99.219 C 36.015 101.582 34.651 103.691 34.414 103.906 C 32.675 105.487 18.75 133.99 18.75 135.969 C 18.75 136.393 18.407 137.35 17.987 138.097 C 17.36 139.211 16.145 143.175 15.177 147.266 C 15.075 147.695 14.102 151.738 13.013 156.25 C 11.925 160.762 10.652 166.738 10.185 169.531 C 9.717 172.324 9.013 176.191 8.62 178.125 C 8.227 180.059 7.687 184.189 7.421 187.305 L 6.937 192.969 L 47.172 192.969 C 69.302 192.969 87.568 192.705 87.765 192.383 C 87.961 192.061 88.327 189.114 88.578 185.835 C 91.292 150.364 127.653 105.971 161.719 96.536 C 162.793 96.239 164.375 95.705 165.234 95.349 C 169.434 93.613 176.33 92.19 187.74 90.706 C 190.665 90.326 193.126 89.888 193.209 89.734 C 193.292 89.58 193.253 71.787 193.124 50.195 L 192.888 10.938 L 189.608 11.03 C 187.804 11.081 184.395 11.431 182.031 11.806 M 210.938 50.307 C 210.938 93.568 210.595 90.625 215.629 90.625 C 219.327 90.625 231.902 93.266 238.672 95.464 C 244.137 97.239 244.717 97.475 251.953 100.858 C 266.774 107.788 278.746 117.144 291.342 131.641 C 292.089 132.5 294.062 135.313 295.727 137.891 C 297.391 140.469 299.21 143.043 299.767 143.61 C 300.325 144.178 300.781 145.145 300.781 145.759 C 300.781 146.373 301.07 146.875 301.424 146.875 C 302.453 146.875 307.954 158.551 310.81 166.797 C 313.025 173.191 314.138 178.097 315.155 185.938 L 316.016 192.578 L 356.445 192.78 L 396.875 192.983 L 396.861 189.655 C 396.854 187.825 396.311 183.164 395.655 179.297 C 394.999 175.43 394.118 170.24 393.697 167.764 C 381.738 97.43 324.561 36.718 252.344 17.673 C 242.006 14.947 218.781 10.938 213.326 10.938 L 210.938 10.938 L 210.938 50.307 M 174.609 37.66 L 174.609 43.288 L 169.922 44.335 C 150.121 48.76 122.394 59.667 114.844 66.001 C 114.199 66.541 113.311 67.117 112.87 67.281 C 97.33 73.038 67.326 105.963 54.739 131.07 C 48.14 144.234 45.482 151.214 42.623 162.891 C 41.886 165.898 40.914 169.854 40.462 171.68 L 39.641 175 L 33.492 175 C 30.111 175 27.344 174.831 27.344 174.624 C 27.344 170.695 33.404 149.779 37.619 139.159 C 57.886 88.096 103.875 48.331 158.256 34.852 C 169.017 32.184 168.823 32.223 171.875 32.123 L 174.609 32.033 L 174.609 37.66 M 238.819 33.211 C 271.206 40.39 295.245 52.647 320.998 75.115 C 332.977 85.565 349.004 104.042 351.394 110.156 C 351.646 110.801 353.115 113.437 354.658 116.016 C 364.286 132.096 374.198 158.922 375.153 171.484 L 375.391 174.609 L 369.577 174.609 L 363.764 174.609 L 361.956 167.188 C 359.957 158.983 357.29 149.679 356.244 147.266 C 355.872 146.406 355.333 144.824 355.046 143.75 C 354.205 140.592 346.12 124.259 342.671 118.75 C 339.502 113.686 338.762 112.637 336.914 110.576 C 336.377 109.977 335.938 109.282 335.938 109.032 C 335.938 108.783 333.74 105.862 331.055 102.542 C 307.087 72.914 272.578 52.328 233.789 44.519 L 228.906 43.536 L 228.906 37.784 L 228.906 32.031 L 231.202 32.031 C 232.464 32.031 235.892 32.562 238.819 33.211 M 175 68.236 L 175 73.972 L 167.773 75.744 C 139.098 82.775 107.68 104.42 92.309 127.734 C 91.176 129.453 90.067 131.035 89.844 131.25 C 87.951 133.074 79.698 148.794 79.683 150.603 C 79.68 150.916 79.221 152.051 78.663 153.125 C 77.386 155.582 72.828 170.042 72.506 172.656 C 72.286 174.444 59.375 176.433 59.375 174.679 C 59.375 167.861 71.977 135.14 76.348 130.608 C 76.896 130.04 77.344 129.074 77.344 128.46 C 77.344 127.846 77.609 127.344 77.934 127.344 C 78.259 127.344 78.962 126.355 79.497 125.147 C 80.032 123.938 81.173 122.195 82.032 121.273 C 82.891 120.351 83.594 119.396 83.594 119.15 C 83.594 117.276 97.78 101.875 106.112 94.704 C 121.841 81.167 144.764 69.554 166.639 64.042 C 175.43 61.828 175 61.612 175 68.236 M 236.474 64.019 C 250.248 67.448 252.173 68.127 264.987 74.073 C 303.759 92.067 333.227 127.348 343.301 167.837 C 345.187 175.419 345.406 175.099 338.503 174.838 L 332.476 174.609 L 331.774 171.875 C 319.332 123.423 280.372 85.488 231.77 74.505 L 228.775 73.828 L 228.645 68.163 C 228.496 61.656 228.011 61.913 236.474 64.019 M 194.141 126.634 C 136.723 132.551 106.164 194.399 137.205 241.864 C 154.724 268.653 188.93 282.527 218.854 274.981 C 220.515 274.562 223.358 273.848 225.17 273.395 C 239.452 269.826 258.151 255.785 267.262 241.787 C 283.15 217.377 283.299 186.675 267.651 161.328 C 263.915 155.276 251.127 141.406 249.283 141.406 C 248.955 141.406 245.805 139.674 242.282 137.557 C 232.913 131.926 221.238 127.826 212.079 126.951 C 202.6 126.046 200.253 126.004 194.141 126.634 M 211.719 157.439 C 240.955 164.149 256.19 194.777 243.168 220.663 C 224.138 258.49 168.357 252.578 157.247 211.557 C 148.826 180.466 179.457 150.034 211.719 157.439 M 7.415 215.039 C 8.118 222.381 11.212 239.303 13.307 247.266 C 15.102 254.087 15.406 255.381 16.112 259.18 C 16.371 260.576 16.916 261.719 17.322 261.719 C 17.729 261.719 17.834 262.086 17.557 262.534 C 17.28 262.983 17.361 263.774 17.739 264.292 C 18.116 264.81 18.892 266.641 19.464 268.359 C 21.506 274.492 27.844 287.663 31.769 293.93 C 32.772 295.533 33.594 296.987 33.594 297.161 C 33.594 297.574 40.021 307.302 40.632 307.813 C 40.888 308.027 41.847 309.434 42.763 310.938 C 43.679 312.441 45.066 314.379 45.847 315.242 C 46.627 316.106 48.654 318.567 50.351 320.711 C 67.41 342.261 99.806 365.665 128.125 376.901 C 130.059 377.668 132.52 378.642 133.594 379.066 C 141.748 382.28 158.915 386.868 169.863 388.76 C 177.622 390.1 192.161 391.693 192.603 391.251 C 193.084 390.77 193.123 313.381 192.642 312.604 C 192.416 312.238 189.616 311.701 186.419 311.412 C 177.849 310.635 164.707 307.673 162.93 306.118 C 162.521 305.761 161.636 305.469 160.962 305.469 C 158.281 305.469 135.982 293.389 133.594 290.643 C 133.379 290.396 131.621 289.006 129.688 287.555 C 116.685 277.794 101.272 257.947 95.996 244.172 C 95.167 242.006 94.163 239.531 93.765 238.672 C 93.072 237.173 92.739 236.059 90.178 226.665 C 89.548 224.358 88.829 219.787 88.578 216.508 C 88.327 213.23 87.961 210.283 87.765 209.961 C 87.568 209.639 69.287 209.375 47.14 209.375 L 6.873 209.375 L 7.415 215.039 M 315.817 301.36 L 316.016 393.359 L 325.195 393.579 L 334.375 393.8 L 334.375 310.54 L 334.375 227.281 L 340.641 227.507 L 346.907 227.734 L 346.884 310.742 L 346.861 393.75 L 356.243 393.75 L 365.625 393.75 L 365.625 310.547 L 365.625 227.344 L 372.266 227.344 L 378.906 227.344 L 378.906 310.572 L 378.906 393.8 L 388.086 393.579 L 397.266 393.359 L 397.266 301.563 L 397.266 209.766 L 356.442 209.563 L 315.619 209.361 L 315.817 301.36 M 40.268 229.492 C 54.444 296.62 106.864 348.276 170.898 358.216 L 174.219 358.731 L 174.219 364.622 L 174.219 370.514 L 170.117 369.972 C 162.523 368.968 145.704 364.172 134.781 359.896 C 85.665 340.666 44.628 295.056 31.688 245.313 C 30.962 242.52 30.067 239.18 29.699 237.891 C 29.331 236.602 28.794 233.701 28.505 231.445 L 27.978 227.344 L 33.896 227.344 C 39.721 227.344 39.821 227.377 40.268 229.492 M 72.592 231.445 C 76.284 246.398 88.147 272.169 93.72 277.344 C 93.951 277.559 95.42 279.316 96.983 281.25 C 107.892 294.743 124.427 308.092 140.234 316.17 C 150.604 321.469 157.392 324.019 170.703 327.618 L 174.609 328.674 L 174.839 334.259 C 175.102 340.665 175.501 340.425 167.434 338.715 C 154.026 335.874 130.676 326.349 124.938 321.381 C 124.26 320.793 123.446 320.313 123.129 320.313 C 121.251 320.313 105.973 307.725 97.649 299.321 C 79.59 281.086 67.401 259.644 60.979 234.814 C 60.097 231.403 59.375 228.327 59.375 227.978 C 59.375 227.629 62.121 227.344 65.477 227.344 L 71.58 227.344 L 72.592 231.445 M 283.008 278.88 L 275 286.601 L 275 339.029 L 275 391.457 L 283.789 391.237 L 292.578 391.016 L 292.778 331.055 C 292.938 283.329 292.778 271.1 291.997 271.127 C 291.457 271.145 287.412 274.634 283.008 278.88 M 256.641 298.794 C 255.352 299.398 252.539 300.633 250.391 301.537 C 248.242 302.442 245.605 303.674 244.531 304.276 L 242.578 305.37 L 242.376 347.714 C 242.23 378.335 242.419 390.353 243.058 391.123 C 244.043 392.31 258.204 392.659 259.967 391.54 C 261.224 390.742 261.025 298.325 259.766 297.935 C 259.336 297.803 257.93 298.189 256.641 298.794 M 221.875 310.568 C 219.082 311.135 215.475 311.818 213.86 312.086 L 210.923 312.573 L 211.126 352.185 L 211.328 391.797 L 219.922 391.797 L 228.516 391.797 L 228.718 350.586 C 228.879 317.843 228.718 309.392 227.937 309.456 C 227.396 309.501 224.668 310.001 221.875 310.568" stroke-linecap="round" />
</g>
</svg>